<svg xmlns="http://www.w3.org/2000/svg" width="900" height="80" viewBox="0 0 900 80">
  <rect width="900" height="80" fill="#1a1a1a"/>
  <g stroke="#c9ff32" stroke-width="0.5" opacity="0.25">
    <line x1="42"  y1="18" x2="110" y2="38"/>
    <line x1="110" y1="38" x2="185" y2="22"/>
    <line x1="185" y1="22" x2="254" y2="55"/>
    <line x1="254" y1="55" x2="310" y2="30"/>
    <line x1="310" y1="30" x2="390" y2="48"/>
    <line x1="390" y1="48" x2="460" y2="20"/>
    <line x1="460" y1="20" x2="530" y2="42"/>
    <line x1="530" y1="42" x2="612" y2="15"/>
    <line x1="612" y1="15" x2="670" y2="50"/>
    <line x1="670" y1="50" x2="750" y2="28"/>
    <line x1="750" y1="28" x2="820" y2="58"/>
    <line x1="820" y1="58" x2="880" y2="32"/>
    <line x1="110" y1="38" x2="254" y2="55"/>
    <line x1="310" y1="30" x2="460" y2="20"/>
    <line x1="530" y1="42" x2="670" y2="50"/>
    <line x1="612" y1="15" x2="750" y2="28"/>
  </g>
  <g fill="#c9ff32">
    <circle cx="42"  cy="18" r="2.5" opacity="0.9"/>
    <circle cx="110" cy="38" r="1.5" opacity="0.6"/>
    <circle cx="185" cy="22" r="2"   opacity="0.8"/>
    <circle cx="254" cy="55" r="1.5" opacity="0.5"/>
    <circle cx="310" cy="30" r="3"   opacity="1.0"/>
    <circle cx="390" cy="48" r="1.5" opacity="0.55"/>
    <circle cx="460" cy="20" r="2"   opacity="0.75"/>
    <circle cx="530" cy="42" r="1.5" opacity="0.5"/>
    <circle cx="612" cy="15" r="2.5" opacity="0.85"/>
    <circle cx="670" cy="50" r="1.5" opacity="0.6"/>
    <circle cx="750" cy="28" r="2"   opacity="0.7"/>
    <circle cx="820" cy="58" r="1.5" opacity="0.5"/>
    <circle cx="880" cy="32" r="2"   opacity="0.8"/>
    <circle cx="70"  cy="58" r="1"   opacity="0.25"/>
    <circle cx="148" cy="60" r="1"   opacity="0.2"/>
    <circle cx="220" cy="10" r="1"   opacity="0.3"/>
    <circle cx="340" cy="65" r="1"   opacity="0.2"/>
    <circle cx="420" cy="10" r="1"   opacity="0.25"/>
    <circle cx="500" cy="62" r="1"   opacity="0.2"/>
    <circle cx="578" cy="55" r="1"   opacity="0.25"/>
    <circle cx="640" cy="8"  r="1"   opacity="0.3"/>
    <circle cx="710" cy="65" r="1"   opacity="0.2"/>
    <circle cx="790" cy="12" r="1"   opacity="0.25"/>
    <circle cx="858" cy="62" r="1"   opacity="0.2"/>
  </g>
</svg>
